HIERARCHY
ROOT pelvis
{
  OFFSET 0 100 0
  CHANNELS 6 Xposition Yposition Zposition Zrotation Xrotation Yrotation
  JOINT pelvis_right_femur
  {
    OFFSET -10.78128 -3.44521 -0.5502486
    CHANNELS 3 Zrotation Xrotation Yrotation
    JOINT right_femur_tibia
    {
      OFFSET -0.8047443 -44.0398 -0.1307829
      CHANNELS 3 Zrotation Xrotation Yrotation
      JOINT right_tibia_foot
      {
        OFFSET 3.006224 -47.83518 -5
        CHANNELS 3 Zrotation Xrotation Yrotation
        End Site
        {
          OFFSET 0 -5 15
        }
      }
    }
  }
  JOINT pelvis_left_femur
  {
    OFFSET 10.78128 -3.44521 -0.5502486
    CHANNELS 3 Zrotation Xrotation Yrotation
    JOINT left_femur_tibia
    {
      OFFSET 0.8047443 -44.0398 -0.1307829
      CHANNELS 3 Zrotation Xrotation Yrotation
      JOINT left_tibia_foot
      {
        OFFSET -4.370144 -48.10324 -4.275266
        CHANNELS 3 Zrotation Xrotation Yrotation
        End Site
        {
          OFFSET 0 -5 15
        }
      }
    }
  }
  JOINT pelvis_spine1
  {
    OFFSET 0 6.468898 -3.129235
    CHANNELS 3 Zrotation Xrotation Yrotation
    JOINT spine1
    {
      OFFSET 0 23.15396 4.99043
      CHANNELS 3 Zrotation Xrotation Yrotation
      JOINT spine2
      {
        OFFSET 0 20.79997 -5.064912
        CHANNELS 3 Zrotation Xrotation Yrotation
        JOINT neck
        {
          OFFSET 0 14.38658 9.616178
          CHANNELS 3 Zrotation Xrotation Yrotation
          End Site
          {
            OFFSET 0 20 0
          }
        }
      }
      JOINT right_manubrium
      {
        OFFSET -5.722621 16.35077 3.967754
        CHANNELS 3 Zrotation Xrotation Yrotation
        JOINT right_clavicle
        {
          OFFSET -13.16364 1.694482 -4.693211
          CHANNELS 3 Zrotation Xrotation Yrotation
          JOINT right_humerus
          {
            OFFSET -28.5034 -0.3100689 -2.792744
            CHANNELS 3 Zrotation Xrotation Yrotation
            JOINT right_radius
            {
              OFFSET -25.15693 0.02248979 -1.271978
              CHANNELS 3 Zrotation Xrotation Yrotation
              End Site
              {
                OFFSET -15 0 0
              }
            }
          }
        }
      }
      JOINT left_manubrium
      {
        OFFSET 5.722621 16.35077 3.967754
        CHANNELS 3 Zrotation Xrotation Yrotation
        JOINT left_clavicle
        {
          OFFSET 13.16364 1.694482 -4.693211
          CHANNELS 3 Zrotation Xrotation Yrotation
          JOINT left_humerus
          {
            OFFSET 29.39168 -1.063119 -2.237045
            CHANNELS 3 Zrotation Xrotation Yrotation
            JOINT left_radius
            {
              OFFSET 24.59957 -0.9528479 0.9047498
              CHANNELS 3 Zrotation Xrotation Yrotation
              End Site
              {
                OFFSET 15 -0 -0
              }
            }
          }
        }
      }
    }
  }
}
MOTION
Frames: 19
Frame Time: 0.0416666666667
-1178.933 104.2266 2284.412 -14.84465 -4.45957 -77.05531 0.1486058 6.17839 -5.570273 -0 45.67424 -0 -16.14848 14.95279 2.535541 -5.67145 6.420404 -12.41028 -0 15.90306 -0 -5.20829 -15.34183 18.06525 -1.159153 -2.18194 5.941058 1.238241 11.91511 -7.548996 0.9139823 22.01082 6.005945 1.968905 -25.72292 9.010713 -2.515079 -25.20911 12.61115 92.23602 25.93374 -17.31722 -0 0 19.9997 -17.86354 7.156827 5.70778 6.232571 -20.65365 -0.620389 -93.19653 15.76105 25.39574 0 0 -6.071031 16.54986 14.11864 -12.65229
-1183.748 104.6065 2285.834 -14.08464 -4.393664 -76.22962 0.1511323 1.463036 -6.118224 -0 41.45058 -0 -15.86621 11.66259 2.082715 -5.424348 9.457001 -12.63511 -0 13.89874 -0 -5.27308 -16.60255 16.92289 -1.244456 -2.175027 5.504721 1.665829 11.536 -7.811468 0.9526619 22.08415 6.571011 2.282256 -26.66678 9.755319 -2.321768 -24.65501 12.60328 92.49651 26.22165 -18.39692 -0 0 18.97165 -16.16257 6.541653 4.248824 6.792278 -20.8317 -0.2305052 -93.22936 16.12057 23.8722 0 0 -6.865774 18.1996 14.06808 -14.91291
-1188.375 104.571 2287.173 -12.99394 -4.396377 -75.50871 0.004158649 -2.494892 -6.679142 -0 35.86436 -0 -15.31859 8.128344 1.620041 -5.440614 11.76131 -12.81199 -0 12.29078 -0 -4.739244 -17.79916 16.31672 -1.326195 -2.157732 5.074187 2.101204 11.10137 -8.031201 0.9820569 22.09954 7.13834 2.586518 -27.61157 10.50424 -2.102266 -24.14589 12.5587 92.61334 26.59498 -19.30155 -0 0 18.03009 -14.37808 5.95643 2.950589 7.307762 -20.94781 0.1354098 -93.18799 16.50913 22.4212 0 0 -7.997892 19.72108 13.89286 -16.85803
-1192.899 104.1784 2288.467 -11.75506 -4.407192 -74.90625 -0.1858378 -5.922583 -7.173336 -0 30.23119 -0 -14.71477 5.094512 1.285754 -5.63842 13.42935 -12.87181 -0 11.20547 -0 -3.538952 -18.77535 16.20658 -1.41802 -2.115037 4.680372 2.479907 10.66196 -8.186117 0.9770135 22.03953 7.70693 2.905841 -28.40446 11.15667 -1.808166 -23.61632 12.50135 92.59341 27.13854 -20.01691 -0 0 17.11014 -12.77744 5.519859 2.018638 7.736981 -21.04764 0.4058524 -92.98059 16.91011 21.05059 0 0 -9.573064 20.82168 13.55732 -18.10181
-1197.382 103.5085 2289.747 -10.50867 -4.377919 -74.41608 -0.3240947 -8.999022 -7.545045 -0 25.19338 -0 -14.14736 2.791853 1.085935 -5.91873 14.61721 -12.80758 -0 10.62924 -0 -1.82533 -19.46359 16.47172 -1.517553 -2.050236 4.345222 2.763371 10.2671 -8.280904 0.9302839 21.90428 8.254472 3.239645 -28.94887 11.64337 -1.430145 -23.04053 12.4495 92.48275 27.85067 -20.58029 -0 0 16.18778 -11.53618 5.305474 1.520171 8.077221 -21.18001 0.5514187 -92.57665 17.28136 19.7586 0 0 -11.54218 21.40055 13.09587 -18.54555
-1201.873 102.6394 2291.032 -9.344339 -4.288107 -74.02366 -0.3541829 -11.82308 -7.783739 -0 20.93637 -0 -13.6598 1.212075 0.9890565 -6.210611 15.46721 -12.6294 -0 10.52203 -0 0.2008699 -19.85102 16.97469 -1.614792 -1.977137 4.077426 2.946833 9.946426 -8.334542 0.8532517 21.71418 8.747074 3.565466 -29.23416 11.94849 -0.9988941 -22.44152 12.40889 92.33448 28.65339 -21.03433 -0 0 15.29104 -10.69908 5.309495 1.395829 8.343547 -21.36247 0.5848961 -92.02121 17.58814 18.56388 0 0 -13.70922 21.52862 12.57498 -18.3329
-1206.418 101.6408 2292.336 -8.320291 -4.134533 -73.71252 -0.2446202 -14.4291 -7.900408 -0 17.46067 -0 -13.28165 0.270149 0.9602179 -6.468726 16.08689 -12.34561 -0 10.86928 -0 2.361604 -19.93993 17.59035 -1.701545 -1.908082 3.874237 3.047367 9.707622 -8.365947 0.7639732 21.49891 9.158678 3.85835 -29.30907 12.09707 -0.5585954 -21.86147 12.37796 92.1874 29.45092 -21.40708 -0 0 14.46559 -10.21784 5.475537 1.530448 8.550103 -21.58184 0.5391014 -91.39613 17.81946 17.49871 0 0 -15.8402 21.34698 12.05608 -17.6981
-1211.063 100.5757 2293.67 -7.481983 -3.92135 -73.46813 0.02586137 -16.80418 -7.907809 -0 14.72578 -0 -13.04094 -0.1354864 0.9655702 -6.6622 16.54998 -11.95866 -0 11.69858 -0 4.512367 -19.72763 18.21265 -1.774666 -1.848901 3.726994 3.087922 9.544307 -8.387153 0.6768149 21.28491 9.480144 4.10377 -29.23945 12.12961 -0.1440972 -21.33431 12.35432 92.06112 30.17414 -21.71285 -0 0 13.74484 -10.0096 5.736366 1.814567 8.705231 -21.81281 0.4466927 -90.77719 17.98343 16.5902 0 0 -17.75729 20.98551 11.57956 -16.84835
-1215.853 99.50463 2295.042 -6.873962 -3.655051 -73.28092 0.4765571 -18.8981 -7.810186 -0 12.70809 -0 -12.96763 -0.1086364 0.9685346 -6.766024 16.90095 -11.46625 -0 13.08517 -0 6.533574 -19.19949 18.75275 -1.834821 -1.800182 3.626025 3.087808 9.444868 -8.403443 0.5994568 21.0899 9.716036 4.298551 -29.08141 12.08372 0.2253983 -20.87741 12.33704 91.9615 30.78965 -21.95872 -0 0 13.1422 -9.996616 6.038588 2.169905 8.813669 -22.03293 0.3313877 -90.21482 18.0958 15.85094 0 0 -19.36512 20.53342 11.16502 -15.92312
-1220.832 98.4901 2296.459 -6.546175 -3.343391 -73.14968 1.126481 -20.62691 -7.600025 -0 11.41381 -0 -13.09275 0.2434343 0.9248622 -6.756209 17.15765 -10.86421 -0 15.15463 -0 8.31927 -18.33014 19.13571 -1.884429 -1.760098 3.563421 3.059713 9.398257 -8.415836 0.534332 20.92354 9.877259 4.446336 -28.87295 11.9868 0.5424778 -20.49521 12.32645 91.8881 31.28893 -22.14884 -0 0 12.65662 -10.12286 6.348093 2.550002 8.878695 -22.22787 0.2072849 -89.73505 18.17181 15.28113 0 0 -20.63147 20.04116 10.81801 -15.0002
-1226.039 97.6001 2297.922 -6.5544 -2.997128 -73.08533 1.989408 -21.8744 -7.25996 -0 10.86495 -0 -13.44333 0.8071857 0.7790581 -6.608344 17.30995 -10.15013 -0 18.08036 -0 9.769916 -17.0916 19.30007 -1.926336 -1.726329 3.534117 3.009998 9.39667 -8.423127 0.4809291 20.79054 9.975266 4.553122 -28.63525 11.85551 0.805516 -20.18578 12.32364 91.83917 31.67481 -22.28569 -0 0 12.28086 -10.35659 6.646188 2.932088 8.902556 -22.39063 0.08117393 -89.34807 18.22288 14.87551 0 0 -21.5567 19.5313 10.53699 -14.11511
-1231.499 96.91011 2299.431 -6.952145 -2.633459 -73.11453 3.061751 -22.49587 -6.769293 -0 11.06384 -0 -14.03104 1.466756 0.4652044 -6.299528 17.31374 -9.328293 -0 22.06546 -0 10.79309 -15.46897 19.20255 -1.963212 -1.696891 3.536047 2.940038 9.436171 -8.422894 0.4375073 20.6936 10.01905 4.624532 -28.37725 11.69803 1.013938 -19.94612 12.33002 91.81405 31.95188 -22.36954 -0 0 12.00775 -10.6867 6.923642 3.308494 8.886068 -22.51854 -0.0448492 -89.05678 18.25626 14.63 0 0 -22.14963 19.00898 10.31809 -13.27892
-1237.221 96.50173 2300.976 -7.769722 -2.279253 -73.28034 4.304606 -22.33084 -6.114236 -0 11.94018 -0 -14.83299 2.119797 -0.0823377 -5.813808 17.07998 -8.416351 -0 27.28932 -0 11.31478 -13.48368 18.82892 -1.99727 -1.670386 3.569805 2.847736 9.516079 -8.411807 0.4021188 20.63537 10.01414 4.66448 -28.10053 11.51698 1.165169 -19.77564 12.34716 91.81357 32.12135 -22.39723 -0 0 11.83423 -11.11695 7.175458 3.679962 8.828243 -22.6104 -0.1712423 -88.86262 18.27563 14.54602 0 0 -22.4139 18.47007 10.15816 -12.49139
-1243.179 96.45541 2302.536 -8.978796 -1.971077 -73.63549 5.626599 -21.23109 -5.299017 -0 13.2952 -0 -15.76678 2.701568 -0.9018625 -5.150399 16.46165 -7.453167 -0 33.79423 -0 11.30135 -11.21991 18.2091 -2.029935 -1.646095 3.637958 2.729145 9.637544 -8.385685 0.3732284 20.61931 9.962701 4.67452 -27.80378 11.31232 1.25282 -19.67843 12.37644 91.83921 32.17915 -22.36093 -0 0 11.76374 -11.65892 7.39694 4.050698 8.726317 -22.66434 -0.2993324 -88.76881 18.28167 14.63251 0 0 -22.34315 17.90803 10.05655 -11.7505
-1249.31 96.83372 2304.08 -10.45233 -1.749361 -74.22356 6.881126 -19.10658 -4.353093 -0 14.77653 -0 -16.67254 3.195775 -1.962163 -4.331784 15.24965 -6.504109 -0 41.30625 -0 10.78575 -8.841709 17.43047 -2.061233 -1.624142 3.744018 2.580392 9.801587 -8.33972 0.3502154 20.64953 9.863731 4.65328 -27.48705 11.08399 1.265814 -19.66484 12.41857 91.89154 32.116 -22.24713 -0 0 11.80779 -12.32368 7.581072 4.424407 8.576202 -22.67625 -0.4299235 -88.7813 18.27195 14.90602 0 0 -21.92266 17.32036 10.01653 -11.05993
-1255.511 97.65262 2305.563 -11.95096 -1.646877 -75.0509 7.893515 -15.97857 -3.330889 -0 15.93069 -0 -17.32878 3.598329 -3.129358 -3.405574 13.20007 -5.655358 -0 49.05079 -0 9.882764 -6.581198 16.63961 -2.088764 -1.605805 3.891155 2.399896 10.00714 -8.269262 0.3338917 20.72967 9.712996 4.59566 -27.15513 10.8338 1.188529 -19.75222 12.473 91.96858 31.91873 -22.03691 -0 0 11.98674 -13.11302 7.717755 4.801117 8.373262 -22.63932 -0.5623144 -88.90794 18.2399 15.38902 0 0 -21.13541 16.71463 10.04687 -10.43461
-1261.651 98.84659 2306.94 -13.17748 -1.674221 -76.0669 8.521659 -12.01303 -2.303854 -0 16.35442 -0 -17.52722 3.830781 -4.188087 -2.432113 10.1175 -4.98778 -0 55.72223 -0 8.774051 -4.684176 16.02088 -2.106355 -1.593832 4.080992 2.190319 10.25017 -8.171352 0.3269806 20.86087 9.501992 4.491818 -26.81815 10.56541 1.002337 -19.96438 12.53745 92.06518 31.57185 -21.7085 -0 0 12.32908 -14.01321 7.796139 5.175675 8.113208 -22.54508 -0.694328 -89.15537 18.17277 16.10604 0 0 -19.97121 16.11163 10.16301 -9.902145
-1267.606 100.2484 2308.178 -13.90222 -1.803768 -77.1745 8.72729 -7.506289 -1.345117 -0 15.88634 -0 -17.18141 3.677331 -4.935796 -1.454606 5.984368 -4.533229 -0 59.77381 -0 7.658236 -3.326118 15.7439 -2.102749 -1.592426 4.312979 1.959374 10.52485 -8.046807 0.3343844 21.03933 9.216106 4.326438 -26.48788 10.28165 0.6888297 -20.32881 12.60761 92.17436 31.05864 -21.24253 -0 0 12.86811 -14.99448 7.810692 5.539271 7.792938 -22.38653 -0.8239511 -89.52346 18.04916 17.0774 0 0 -18.43777 15.5434 10.38664 -9.49702
-1273.293 101.6106 2309.278 -14.07703 -1.956481 -78.26916 8.610841 -2.823882 -0.5078771 -0 14.70774 -0 -16.37802 2.841827 -5.289642 -0.464948 1.06143 -4.240421 -0 59.97927 -0 6.690789 -2.541949 15.88763 -2.060981 -1.606538 4.5844 1.719211 10.82623 -7.902033 0.3630463 21.25365 8.833402 4.07935 -26.17061 9.980287 0.234975 -20.87145 12.67695 92.28977 30.36308 -20.6291 -0 0 13.63572 -16.01507 7.76938 5.883638 7.411785 -22.16244 -0.9519525 -89.99829 17.8383 18.3104 0 0 -16.57356 15.04631 10.74182 -9.247831
